<?xml version="1.0" standalone="no"?>
<!DOCTYPE svg PUBLIC "-//W3C//DTD SVG 20010904//EN"
 "http://www.w3.org/TR/2001/REC-SVG-20010904/DTD/svg10.dtd">
<svg version="1.0" xmlns="http://www.w3.org/2000/svg"
 width="255.000000pt" height="255.000000pt" viewBox="0 0 255.000000 255.000000"
 preserveAspectRatio="xMidYMid meet">
<metadata>
Created by potrace 1.11, written by Peter Selinger 2001-2013
</metadata>
<g transform="translate(0.000000,255.000000) scale(0.100000,-0.100000)"
fill="#000000" stroke="none">
<path d="M320 2490 c0 -46 -4 -61 -17 -68 -35 -18 -179 -47 -238 -47 l-60 0
-3 -1104 c-1 -608 2 -1109 6 -1113 5 -5 42 14 83 40 109 72 171 101 278 130
89 23 112 25 326 26 259 1 422 -18 533 -61 43 -17 76 -23 100 -20 50 6 186 -9
304 -33 199 -42 427 -130 545 -211 l42 -29 165 0 166 0 0 875 0 875 -26 6
c-36 9 -94 9 -126 1 -24 -6 -30 -3 -53 33 -14 22 -36 42 -50 46 -37 9 -111 -4
-137 -25 l-22 -19 22 -93 c22 -94 33 -232 19 -245 -4 -4 -7 13 -7 38 0 26 -6
50 -14 57 -7 6 -19 33 -26 59 -7 26 -18 54 -25 62 -10 13 -39 77 -40 90 0 3
-6 15 -13 27 -10 19 -16 21 -38 13 -16 -7 -23 -7 -19 0 13 21 13 49 0 54 -21
7 -7 39 22 53 24 11 30 10 50 -9 41 -38 28 5 -17 57 -42 48 -47 60 -30 70 14
9 12 55 -2 56 -7 1 -28 3 -46 5 -39 3 -45 7 -47 34 -1 11 -12 31 -25 45 -22
24 -23 28 -11 58 20 51 19 62 -11 65 -16 2 -28 9 -28 16 0 19 50 61 105 86 42
19 60 21 112 16 58 -6 62 -5 68 16 4 13 22 39 40 58 18 19 35 43 38 53 6 16
-43 17 -943 17 l-950 0 0 -60z m983 -226 c-2 -11 42 -25 91 -30 10 -1 22 -7
26 -14 4 -7 13 -9 19 -6 6 4 11 2 11 -3 0 -6 -9 -11 -19 -11 -11 0 -23 -4 -26
-10 -3 -6 1 -7 9 -4 9 3 16 1 16 -5 0 -6 -8 -11 -18 -11 -10 0 -19 -6 -19 -14
0 -8 6 -12 14 -9 9 3 11 0 7 -10 -3 -8 -1 -18 5 -22 7 -3 8 0 5 9 -4 11 0 16
10 16 9 0 16 -8 16 -20 0 -13 -7 -20 -19 -20 -11 0 -22 -4 -26 -10 -3 -5 -12
-7 -20 -4 -8 4 -18 -1 -21 -10 -6 -15 -8 -15 -23 -2 -10 9 -22 12 -30 6 -8 -5
-21 -4 -31 2 -13 9 -16 18 -10 44 7 31 6 33 -12 23 -16 -8 -19 -17 -14 -40 3
-17 1 -29 -4 -29 -6 0 -13 14 -17 30 l-6 30 -18 -21 c-23 -27 -24 -33 -4 -25
9 3 19 -3 25 -14 9 -17 14 -18 32 -9 17 9 25 7 47 -15 21 -21 22 -26 8 -26 -9
0 -17 -4 -17 -10 0 -5 -9 -10 -20 -10 -11 0 -20 5 -20 10 0 6 5 10 11 10 5 0
7 5 3 12 -5 8 -9 9 -11 1 -6 -17 -41 -3 -46 19 -4 12 -10 17 -17 13 -7 -4 -16
-1 -21 6 -7 11 -9 11 -9 1 0 -7 7 -15 15 -18 8 -4 12 -10 9 -15 -10 -17 -24
-9 -45 24 -21 33 -21 30 -2 -33 4 -12 3 -13 -5 -1 -5 7 -15 10 -21 7 -6 -4
-11 0 -12 11 -1 10 -2 25 -3 33 -2 8 -3 25 -4 38 -2 27 -18 29 -25 2 -5 -21
-37 -28 -37 -8 0 6 -3 8 -7 5 -3 -4 -15 1 -26 10 -10 10 -22 17 -26 15 -3 -2
-10 3 -15 11 -12 18 8 47 32 47 8 0 20 7 26 15 28 37 295 73 289 39z m-368
-108 c39 -69 97 -122 173 -156 29 -13 52 -26 52 -30 0 -3 25 -5 55 -3 30 1 55
-2 55 -6 0 -5 10 -11 22 -14 15 -4 33 3 59 24 36 28 97 59 119 59 22 0 89 -73
109 -121 19 -42 25 -48 37 -38 18 15 94 15 103 0 9 -14 97 -18 125 -6 11 5 21
3 26 -5 6 -9 13 -7 29 9 22 22 61 29 61 11 0 -5 -4 -10 -9 -10 -13 0 -21 -40
-8 -40 7 0 1 -9 -12 -19 -13 -10 -21 -23 -17 -30 4 -6 3 -11 -2 -11 -5 0 -18
-19 -28 -42 -23 -52 -22 -153 2 -216 19 -51 96 -117 152 -131 83 -20 84 -20
89 -1 3 10 13 20 23 23 14 4 29 -12 61 -61 62 -98 82 -149 87 -228 6 -97 -17
-166 -130 -384 -92 -177 -121 -255 -133 -355 l-7 -55 -27 20 c-15 10 -36 19
-47 19 -42 0 -97 9 -103 17 -3 5 -16 9 -28 8 -13 -1 -23 3 -23 9 0 5 -6 5 -14
-2 -11 -9 -15 -8 -19 6 -2 10 -8 27 -13 37 -5 14 -4 17 5 12 9 -6 10 0 5 21
l-7 28 22 -19 c23 -21 27 -16 11 14 -13 24 15 36 29 12 9 -14 10 -11 11 16 0
17 5 32 10 32 6 0 10 -5 10 -11 0 -5 5 -7 10 -4 6 3 10 1 10 -4 0 -6 5 -11 11
-11 6 0 9 7 5 15 -5 13 5 20 26 16 4 0 11 11 14 25 5 20 9 23 16 12 7 -10 11
-10 14 -1 3 7 13 9 22 6 15 -6 16 -5 2 12 -14 17 -13 17 9 10 19 -6 23 -4 18
8 -4 10 1 18 13 22 20 6 53 51 53 72 0 7 6 14 14 17 16 7 18 46 1 46 -6 0 -3
9 7 20 10 11 13 20 7 20 -7 0 -12 -4 -12 -10 0 -23 -15 -8 -17 17 -1 16 -4 43
-7 60 -3 18 -1 35 5 39 5 3 7 14 4 25 -4 10 -3 19 2 19 11 0 11 53 0 61 -4 3
-9 16 -10 27 -1 22 -8 27 -20 16 -3 -4 -21 -8 -39 -9 -22 -1 -46 -14 -72 -38
-22 -20 -43 -34 -47 -32 -4 3 -6 21 -5 40 4 46 -8 45 -21 -2 l-10 -38 -2 50
c-2 87 -30 175 -153 475 -28 69 -62 152 -75 185 -15 38 -21 48 -17 26 3 -18
20 -65 36 -105 68 -163 109 -353 106 -491 -1 -75 -15 -57 -17 23 -1 23 -9 68
-20 100 -10 31 -24 82 -31 112 -51 230 -134 453 -170 463 -15 4 -19 -5 -24
-52 -4 -31 -12 -74 -17 -96 -30 -109 -54 -185 -61 -185 -4 0 -5 -17 -2 -37 2
-21 2 -32 -2 -25 -9 19 -30 14 -30 -8 0 -11 6 -20 14 -20 10 0 12 -10 9 -34
-6 -42 -14 -56 -33 -56 -8 0 -14 -7 -14 -15 0 -9 -7 -18 -15 -21 -8 -4 -12
-10 -9 -15 3 -5 -2 -24 -12 -42 -16 -31 -34 -93 -37 -129 -1 -10 -4 -18 -8
-18 -4 0 -10 -14 -14 -30 -4 -18 -11 -27 -18 -23 -7 4 -8 0 -4 -11 5 -13 3
-17 -7 -13 -7 3 -19 0 -25 -6 -8 -8 -11 -5 -12 13 -1 16 -3 19 -6 9 -3 -11
-11 -15 -24 -12 -10 3 -19 0 -19 -6 0 -6 9 -11 21 -11 18 0 19 -2 5 -15 -8 -8
-19 -15 -25 -15 -5 0 -13 -9 -16 -21 -4 -11 -9 -18 -12 -15 -3 2 5 38 17 78
32 108 32 108 21 108 -5 0 -15 -16 -22 -35 -15 -41 -24 -43 -50 -12 -18 21
-20 21 -33 4 -8 -10 -17 -41 -21 -69 -6 -41 -9 -48 -17 -34 -12 22 6 155 33
240 10 33 17 61 15 63 -5 6 -36 -57 -36 -73 0 -7 -6 -17 -13 -21 -7 -4 -26
-35 -41 -68 -47 -101 -48 -255 -1 -255 16 0 18 -9 9 -34 -5 -13 -9 -12 -25 7
-10 12 -18 19 -19 14 0 -10 -52 36 -134 121 -65 67 -96 87 -96 61 0 -5 -5 -7
-11 -4 -7 5 -5 13 5 24 22 24 20 28 -11 36 -16 3 -36 13 -45 22 -9 8 -22 12
-27 8 -7 -3 -11 2 -11 14 0 23 -11 33 -28 22 -8 -5 7 -25 43 -61 30 -30 55
-58 55 -63 0 -12 54 -134 101 -231 22 -43 66 -112 99 -153 33 -42 60 -81 60
-88 0 -8 5 -15 11 -17 7 -2 12 -18 13 -35 0 -17 4 -29 8 -27 11 7 30 -76 23
-95 -5 -11 -9 -12 -12 -3 -3 6 -18 12 -34 12 -16 0 -29 6 -30 13 0 9 -2 9 -6
0 -7 -18 -23 -16 -23 3 0 9 -8 14 -17 13 -39 -3 -46 0 -33 16 8 9 9 15 2 15
-6 0 -13 -4 -17 -10 -3 -5 -12 -7 -20 -4 -8 4 -13 9 -10 13 4 8 -7 10 -57 13
-15 1 -24 6 -22 10 3 4 -7 10 -21 14 -13 3 -23 10 -20 14 2 4 -29 13 -70 21
-40 7 -72 15 -70 18 11 19 -187 1 -227 -20 -16 -9 -17 0 -11 110 6 114 -6 278
-28 377 -4 22 -15 109 -24 193 -13 123 -14 167 -5 229 24 159 95 255 223 302
15 5 30 18 33 27 3 10 24 56 46 103 71 149 181 280 274 326 69 34 102 29 129
-20z m132 -78 c-3 -8 -6 -5 -6 6 -1 11 2 17 5 13 3 -3 4 -12 1 -19z m173 -74
c0 -8 -8 -14 -17 -13 -10 0 -13 3 -6 5 7 3 9 12 6 21 -4 11 -2 14 5 9 7 -4 12
-14 12 -22z m-145 -1165 c-4 -40 -25 -81 -25 -48 0 19 20 89 25 89 2 0 2 -19
0 -41z m-63 -43 c23 -33 -1 -34 -25 -1 -17 24 -17 24 0 18 10 -4 21 -11 25
-17z m848 -90 c0 -3 -4 -8 -10 -11 -5 -3 -10 -1 -10 4 0 6 5 11 10 11 6 0 10
-2 10 -4z m-871 -71 l0 -20 -9 20 c-5 11 -9 29 -9 40 l0 20 9 -20 c5 -11 9
-29 9 -40z m821 30 c7 -9 8 -15 2 -15 -5 0 -12 7 -16 15 -3 8 -4 15 -2 15 2 0
9 -7 16 -15z m-700 -23 c0 -15 -2 -15 -10 -2 -13 20 -13 33 0 25 6 -3 10 -14
10 -23z m787 -64 c-3 -8 -6 -5 -6 6 -1 11 2 17 5 13 3 -3 4 -12 1 -19z m-840
-131 c16 -17 16 -17 0 -11 -20 7 -47 55 -47 81 1 10 7 3 16 -17 8 -19 22 -43
31 -53z m188 53 c3 -6 3 -20 0 -31 -7 -20 -8 -20 -26 7 -25 39 -25 58 0 44 11
-5 23 -15 26 -20z m469 -66 c3 -8 2 -12 -4 -9 -6 3 -10 10 -10 16 0 14 7 11
14 -7z m-1616 -206 c-13 -9 -26 -14 -30 -12 -4 3 -8 0 -8 -6 0 -6 -5 -8 -11
-5 -12 8 -7 15 13 19 32 7 46 19 41 34 -4 15 -3 15 6 2 8 -12 5 -19 -11 -32z"/>
<path d="M1070 2210 c-9 -6 -10 -10 -3 -10 6 0 15 5 18 10 8 12 4 12 -15 0z"/>
<path d="M1300 2156 c0 -2 7 -9 15 -16 9 -7 15 -8 15 -2 0 5 -7 12 -15 16 -8
3 -15 4 -15 2z"/>
<path d="M803 2010 c-12 -31 -40 -43 -29 -12 4 10 -1 8 -12 -7 -9 -12 -42 -51
-72 -86 -45 -51 -101 -131 -118 -167 -2 -5 9 -8 25 -8 15 0 42 -9 59 -19 18
-11 40 -21 50 -22 34 -5 132 12 142 24 16 20 23 82 15 129 l-7 43 -7 -35 c-6
-34 -6 -33 -8 11 0 26 -8 60 -16 75 -9 19 -12 42 -8 66 7 46 1 49 -14 8z m-8
-50 c3 -5 1 -10 -4 -10 -6 0 -11 5 -11 10 0 6 2 10 4 10 3 0 8 -4 11 -10z m9
-45 c18 -28 21 -65 5 -65 -8 0 -7 -5 1 -15 7 -9 10 -18 6 -22 -3 -3 -6 -1 -6
6 0 7 -4 9 -10 6 -5 -3 -10 0 -10 8 0 21 -70 47 -93 35 -16 -8 -17 -7 -8 10
15 28 60 62 81 62 10 0 25 -11 34 -25z m-104 -161 c0 -14 -5 -24 -11 -22 -6 2
-10 7 -10 11 1 4 1 14 1 22 0 8 5 15 10 15 6 0 10 -12 10 -26z"/>
<path d="M1420 1670 c-8 -5 -11 -12 -7 -16 4 -4 13 -2 19 4 15 15 7 24 -12 12z"/>
<path d="M1325 1650 c-3 -5 -2 -10 4 -10 5 0 13 5 16 10 3 6 2 10 -4 10 -5 0
-13 -4 -16 -10z"/>
<path d="M458 1473 c-9 -2 -27 -20 -38 -38 -24 -38 -37 -90 -20 -80 5 3 10 -1
10 -9 0 -9 5 -16 10 -16 7 0 7 -6 0 -20 -8 -15 -6 -21 11 -30 14 -8 24 -8 33
-1 7 6 16 8 19 4 4 -3 7 -1 7 5 0 7 -11 12 -24 12 -47 0 -41 79 11 139 35 42
32 48 -19 34z"/>
<path d="M1213 1468 c-22 -29 -24 -41 -3 -20 12 13 20 25 17 28 -2 2 -9 -1
-14 -8z"/>
<path d="M464 1385 c-20 -50 -17 -53 11 -11 28 41 29 46 14 46 -5 0 -17 -16
-25 -35z"/>
<path d="M480 1235 c7 -9 15 -13 17 -11 7 7 -7 26 -19 26 -6 0 -6 -6 2 -15z"/>
<path d="M714 1148 c3 -13 6 -26 6 -29 0 -3 12 -11 27 -18 20 -9 29 -9 37 0 8
9 8 10 -1 5 -8 -4 -21 7 -35 28 -26 40 -43 47 -34 14z"/>
<path d="M1235 1059 c-4 -6 -5 -12 -2 -15 2 -3 7 2 10 11 7 17 1 20 -8 4z"/>
<path d="M850 1041 c0 -8 -6 -11 -16 -7 -15 6 -15 4 -3 -11 8 -10 19 -21 26
-26 7 -4 10 -13 7 -20 -2 -7 7 -24 20 -36 l25 -24 -8 29 c-11 40 -50 113 -51
95z"/>
<path d="M2090 890 c0 -5 5 -10 10 -10 6 0 10 5 10 10 0 6 -4 10 -10 10 -5 0
-10 -4 -10 -10z"/>
</g>
</svg>
