<?xml version="1.0" standalone="no"?>
<!DOCTYPE svg PUBLIC "-//W3C//DTD SVG 20010904//EN"
 "http://www.w3.org/TR/2001/REC-SVG-20010904/DTD/svg10.dtd">
<svg version="1.0" xmlns="http://www.w3.org/2000/svg"
 width="720.000000pt" height="720.000000pt" viewBox="0 0 720.000000 720.000000"
 preserveAspectRatio="xMidYMid meet">
<metadata>
Created by potrace 1.11, written by Peter Selinger 2001-2013
</metadata>
<g transform="translate(0.000000,720.000000) scale(0.100000,-0.100000)"
fill="#000000" stroke="none">
<path d="M3329 5452 l-1067 -2 -6 -45 c-8 -50 -7 -49 -115 -46 -50 1 -61 -9
-61 -56 0 -26 -4 -33 -20 -33 -17 0 -20 -7 -21 -42 -1 -24 -1 -46 0 -50 0 -5
-21 -8 -48 -8 -53 0 -61 -8 -61 -61 0 -22 -5 -29 -20 -29 -19 0 -20 -7 -20
-99 l0 -99 -28 -4 c-16 -2 -68 -4 -115 -4 -86 1 -87 1 -88 -24 -1 -14 -3 -32
-4 -40 -1 -8 -3 -30 -4 -49 -1 -25 -5 -32 -16 -27 -20 7 -32 -22 -40 -96 l-6
-58 -58 0 -58 0 -7 -37 c-3 -21 -6 -53 -6 -71 0 -20 -5 -32 -12 -31 -33 4
-104 -2 -117 -10 -10 -6 -14 -28 -14 -68 0 -52 0 -53 -4 -10 -4 42 -6 46 -23
37 -13 -7 -20 -6 -23 3 -3 8 -10 6 -21 -8 -14 -18 -15 -18 -16 -2 0 37 -20 15
-20 -23 0 -35 -3 -40 -22 -39 -17 1 -19 2 -6 6 10 2 18 11 18 19 0 18 -14 18
-30 0 -6 -8 -24 -17 -38 -19 l-27 -4 28 -2 c35 -1 37 -33 2 -49 -20 -9 -26 -8
-34 6 -8 14 -12 15 -23 4 -11 -11 -10 -16 7 -28 18 -13 17 -14 -18 -12 -20 2
-37 6 -37 11 0 4 -8 7 -19 7 -10 0 -22 10 -26 23 -7 21 -8 20 -12 -8 -3 -16
-9 -34 -14 -40 -7 -7 -8 -4 -3 9 6 15 3 17 -13 12 -11 -4 -31 -3 -44 2 -13 5
-45 12 -71 16 -45 7 -48 6 -49 -16 0 -21 -1 -21 -8 -4 -5 14 -10 16 -15 8 -4
-7 -13 -9 -19 -5 -7 4 -34 7 -60 8 -31 0 -51 5 -58 15 -8 11 -12 12 -16 3 -2
-7 -11 -13 -18 -13 -7 0 -16 6 -18 13 -4 10 -6 10 -6 0 -1 -7 -9 -13 -19 -13
-10 0 -27 -7 -39 -15 -19 -13 -23 -13 -44 4 -32 24 -70 33 -86 19 -19 -15 -29
-2 -13 17 17 20 11 25 -34 27 -20 1 -36 5 -36 10 0 4 -7 8 -15 8 -18 0 -20
-17 -3 -22 9 -3 9 -6 1 -11 -6 -4 -19 0 -27 9 -13 13 -22 14 -48 5 -41 -14
-37 -16 -54 24 -13 33 -34 48 -34 25 0 -5 -7 -10 -15 -10 -8 0 -15 -4 -15 -10
0 -5 -4 -10 -10 -10 -5 0 -10 9 -10 20 0 16 -7 20 -30 20 l-30 0 0 -2190 0
-2190 3600 0 3600 0 0 2239 c0 1774 -3 2240 -13 2244 -9 4 -9 6 1 6 18 1 15
31 -3 31 -13 0 -14 4 -4 21 10 20 9 21 -23 14 -18 -4 -40 -16 -49 -26 -18 -21
-39 -25 -39 -8 0 6 7 18 16 27 21 20 6 26 -43 17 -27 -5 -33 -9 -22 -15 8 -6
15 -6 17 0 2 6 8 10 13 10 5 0 4 -9 -3 -20 -10 -15 -24 -20 -60 -20 -46 0 -61
-11 -37 -26 16 -9 -10 -24 -43 -24 -21 0 -28 5 -28 20 0 11 -7 20 -15 20 -8 0
-15 5 -15 10 0 6 7 10 15 10 8 0 15 7 15 15 0 19 -26 20 -33 1 -3 -7 -17 -16
-32 -18 -19 -4 -25 -2 -21 8 4 9 -2 14 -15 14 -15 0 -19 -5 -15 -15 3 -8 1
-15 -4 -15 -6 0 -10 -7 -10 -15 0 -21 -30 -19 -30 3 -1 15 -2 15 -13 1 -7 -9
-25 -19 -41 -23 -24 -6 -28 -4 -22 9 3 9 6 19 6 21 0 2 11 4 25 4 34 0 32 15
-4 33 -32 16 -47 11 -30 -9 15 -19 -14 -47 -40 -39 -11 3 -22 1 -26 -5 -11
-17 -35 8 -35 36 0 17 -6 24 -19 24 -11 0 -22 6 -25 13 -4 7 -8 8 -11 2 -17
-32 -24 -37 -41 -30 -18 7 -18 8 1 15 20 9 20 9 0 9 -12 1 -28 -11 -37 -26
-13 -21 -18 -23 -18 -10 0 12 -8 17 -30 17 -29 0 -43 -8 -98 -57 -28 -26 -35
-27 -63 -13 -28 16 -23 30 11 30 17 0 30 5 30 10 0 6 -18 10 -40 10 -31 0 -40
4 -40 17 0 15 -1 15 -14 -2 -13 -18 -13 -18 -24 1 -6 10 -13 16 -16 14 -11
-12 -24 -90 -15 -96 11 -6 12 -24 2 -24 -5 0 -14 4 -22 9 -12 8 -12 12 -2 25
7 8 11 30 9 48 -2 27 -8 34 -28 36 -23 2 -24 1 -7 -11 21 -17 22 -27 2 -27 -8
0 -15 5 -15 10 0 6 -7 10 -15 10 -8 0 -15 -4 -15 -10 0 -5 5 -10 11 -10 16 0
41 -29 34 -40 -3 -5 -14 -10 -23 -10 -14 0 -15 2 -2 10 12 8 12 10 -3 16 -10
4 -23 2 -30 -5 -17 -17 -46 -13 -59 9 -7 11 -17 20 -22 20 -4 0 -3 -6 3 -14 6
-7 9 -20 5 -29 -4 -12 -1 -14 17 -10 15 4 20 3 15 -5 -4 -7 -16 -12 -27 -12
-14 0 -19 -7 -19 -27 0 -19 3 -24 9 -15 7 11 9 11 14 -2 4 -9 2 -16 -4 -16 -5
0 -14 -10 -19 -22 -8 -21 -9 -20 -9 9 -1 56 -9 63 -63 63 -73 0 -88 11 -88 68
0 26 -4 52 -8 59 -4 6 -33 13 -65 14 l-57 2 -1 41 c-4 87 -12 114 -37 112 -14
-1 -18 11 -22 69 l-5 70 -44 -4 c-24 -1 -74 0 -111 4 l-68 7 -7 109 c-6 98 -9
109 -26 109 -14 0 -19 7 -19 30 0 33 -29 55 -63 46 -31 -8 -47 11 -47 55 0 31
-4 38 -22 41 -19 2 -24 10 -26 45 l-3 43 -68 -2 c-80 -3 -99 8 -103 59 l-3 35
-270 1 c-148 1 -750 1 -1336 -1z m3190 -926 c6 -7 9 -21 5 -30 -3 -9 -1 -16 5
-16 6 0 11 -8 11 -17 -1 -17 -2 -17 -15 1 -8 10 -20 16 -27 14 -9 -4 -14 5
-15 28 -3 36 15 46 36 20z m325 -27 c14 -7 23 -16 20 -20 -7 -12 -44 -11 -44
1 0 6 -9 10 -21 10 -11 0 -17 5 -14 10 8 13 28 13 59 -1z m-511 -26 c-5 -12
-7 -12 -14 -1 -13 20 -11 28 5 22 8 -3 12 -12 9 -21z m267 -13 c-20 -13 -33
-13 -25 0 3 6 14 10 23 10 15 0 15 -2 2 -10z m-593 -42 c-3 -8 -6 -5 -6 6 -1
11 2 17 5 13 3 -3 4 -12 1 -19z m57 -19 c-3 -5 -10 -7 -15 -3 -5 3 -7 10 -3
15 3 5 10 7 15 3 5 -3 7 -10 3 -15z m-5934 -47 c0 -13 -12 -22 -22 -16 -10 6
-1 24 13 24 5 0 9 -4 9 -8z m1187 -74 c-3 -8 -6 -5 -6 6 -1 11 2 17 5 13 3 -3
4 -12 1 -19z m-620 -44 c-3 -3 -12 -4 -19 -1 -8 3 -5 6 6 6 11 1 17 -2 13 -5z
m-204 -34 c3 -11 1 -20 -4 -20 -5 0 -9 9 -9 20 0 11 2 20 4 20 2 0 6 -9 9 -20z
m2411 -730 c-10 -16 -20 -28 -22 -26 -4 5 28 56 35 56 2 0 -4 -13 -13 -30z
m1450 -13 c35 -60 78 -148 74 -152 -2 -3 -19 26 -38 63 -18 37 -44 82 -57 99
-13 18 -18 30 -11 28 7 -3 22 -20 32 -38z m-1490 -65 c-14 -29 -34 -51 -34
-38 0 10 43 77 46 73 2 -2 -3 -18 -12 -35z m-43 -83 c-5 -13 -10 -19 -10 -12
-1 15 10 45 15 40 3 -2 0 -15 -5 -28z m-64 -81 c-3 -8 -6 -5 -6 6 -1 11 2 17
5 13 3 -3 4 -12 1 -19z m152 -10 c-14 -25 -39 -53 -39 -43 0 9 40 65 46 65 3
0 -1 -10 -7 -22z m1446 -18 c3 -5 1 -10 -4 -10 -6 0 -11 5 -11 10 0 6 2 10 4
10 3 0 8 -4 11 -10z m173 -180 c0 -22 -2 -27 -5 -12 -2 12 -8 22 -12 22 -4 0
-5 15 -3 32 4 28 6 30 13 13 4 -11 7 -36 7 -55z m-1807 -7 c-10 -17 -10 -16
-11 3 0 23 13 41 18 25 2 -6 -1 -18 -7 -28z m-11 -433 c0 -5 -5 -10 -11 -10
-5 0 -7 5 -4 10 3 6 8 10 11 10 2 0 4 -4 4 -10z m-85 -90 c-10 -11 -20 -18
-23 -15 -3 3 3 14 13 25 10 11 20 18 23 15 3 -3 -3 -14 -13 -25z m2029 -34
c46 -55 47 -55 19 -53 -21 2 -28 8 -28 24 0 12 -7 30 -16 41 -20 23 -31 42
-26 42 3 0 25 -24 51 -54z m-2042 -28 c-6 -6 -15 -8 -19 -4 -4 4 -1 11 7 16
19 12 27 3 12 -12z m-139 -88 c-9 -11 -19 -17 -21 -15 -6 6 18 35 29 35 5 0 1
-9 -8 -20z m-153 -160 c0 -5 -4 -10 -10 -10 -5 0 -10 5 -10 10 0 6 5 10 10 10
6 0 10 -4 10 -10z m2615 -18 c-3 -3 -11 0 -18 7 -9 10 -8 11 6 5 10 -3 15 -9
12 -12z m-2675 -22 c-19 -17 -38 -30 -44 -30 -9 0 64 58 74 59 3 0 -11 -13
-30 -29z m995 -5 c50 -9 137 -20 195 -26 57 -5 107 -13 110 -17 8 -12 280 -13
330 -1 25 6 83 16 129 23 70 10 85 10 97 -2 8 -7 14 -17 14 -21 0 -17 37 -48
70 -60 51 -19 163 -33 265 -35 68 -1 98 -5 118 -18 16 -11 46 -18 77 -18 28 0
61 -5 72 -11 12 -6 48 -13 81 -16 58 -4 184 -49 217 -77 30 -26 118 -84 157
-104 53 -28 146 -136 148 -174 1 -10 8 -24 15 -31 10 -10 10 -8 1 10 -14 27
-14 36 -1 28 6 -3 7 1 4 9 -3 9 -10 16 -15 16 -4 0 -6 6 -4 13 6 14 -106 127
-150 151 l-30 17 28 -6 c77 -16 184 -118 221 -210 34 -85 47 -135 49 -182 1
-22 5 -39 9 -37 8 5 19 -125 16 -183 -4 -55 -16 -55 -20 0 l-3 42 -12 -35 -12
-35 2 35 c1 19 7 41 14 48 19 19 16 67 -7 114 -11 23 -20 55 -20 71 0 41 -21
107 -34 109 -6 0 -16 2 -22 2 -6 1 -20 8 -30 16 -19 14 -19 14 0 -7 10 -13 22
-20 26 -18 15 10 31 -24 35 -76 3 -41 2 -47 -4 -24 -5 17 -9 23 -10 15 -2 -10
-6 -7 -11 8 -5 12 -6 30 -3 39 4 10 2 14 -5 9 -6 -3 -14 -2 -17 4 -5 8 -11 7
-21 -1 -11 -9 -14 -9 -14 1 0 7 -7 10 -15 6 -13 -4 -14 -2 -5 14 9 16 8 18 -5
14 -10 -4 -15 -2 -13 7 2 8 -4 14 -13 14 -9 0 -24 6 -33 14 -14 12 -19 9 -18
-9 1 -7 -67 -4 -75 4 -10 10 -61 7 -68 -4 -10 -17 -25 -11 -25 9 0 24 -16 36
-26 20 -5 -9 -11 -7 -19 5 -11 15 -14 13 -25 -14 -15 -37 -47 -40 -60 -5 -5
14 -13 25 -18 25 -5 0 -17 18 -27 40 -10 22 -22 40 -27 40 -4 0 -8 6 -8 13 0
7 -9 23 -20 35 -11 12 -20 25 -20 29 -1 17 -39 57 -47 49 -4 -4 2 -16 15 -26
12 -10 22 -28 22 -39 0 -12 4 -21 8 -21 8 0 72 -121 72 -135 0 -4 -7 -2 -15 5
-8 7 -15 19 -15 28 0 15 -37 69 -74 109 -29 29 -40 46 -44 63 -2 8 -11 21 -20
28 -9 7 -34 28 -55 47 -21 19 -43 35 -48 35 -6 0 -9 6 -6 14 8 20 -11 32 -53
34 l-35 3 25 -21 c14 -12 42 -32 63 -46 20 -13 37 -28 37 -33 0 -4 18 -21 41
-35 22 -15 38 -30 35 -33 -3 -4 5 -21 19 -38 17 -23 23 -41 19 -61 -3 -16 -2
-25 2 -21 4 4 14 -2 22 -14 10 -14 11 -24 4 -31 -7 -7 -7 -20 0 -40 15 -42 5
-44 -34 -6 -19 18 -44 39 -56 46 -25 14 -59 16 -64 3 -1 -4 -12 -11 -23 -15
-15 -4 -30 3 -56 28 -30 29 -41 34 -73 32 -37 -3 -38 -3 -32 25 5 27 3 29 -24
29 -20 0 -30 5 -30 15 0 8 -9 15 -20 15 -11 0 -27 11 -36 25 -11 17 -25 25
-45 25 -16 0 -29 5 -29 13 0 6 -5 4 -11 -6 -8 -14 -14 -16 -25 -6 -8 6 -14 8
-14 3 0 -5 -7 -1 -15 9 -13 18 -14 18 -32 -2 -18 -22 -59 -28 -65 -10 -5 14
-38 0 -38 -15 0 -7 -13 -13 -30 -13 -17 0 -26 3 -21 6 5 4 9 27 8 51 l-2 45
43 0 c23 0 42 3 42 8 0 4 -9 7 -20 7 -11 0 -20 5 -20 10 0 14 66 6 86 -10 12
-11 17 -11 23 -1 5 7 12 13 17 13 5 0 21 7 36 16 24 14 25 17 10 28 -11 8 -19
9 -23 2 -10 -17 -112 -22 -107 -6 3 7 13 15 24 16 10 2 24 8 29 14 7 7 -9 8
-48 4 -51 -5 -57 -3 -55 12 2 9 8 21 13 25 9 8 -3 6 -65 -10 -24 -6 -24 -5 -8
13 9 11 27 20 39 21 25 2 35 10 25 20 -5 6 -75 -2 -201 -22 -102 -16 -118 -17
-112 -8 4 6 21 14 39 17 61 13 243 34 251 29 5 -3 25 -1 45 3 35 8 34 8 -28
14 -38 4 -91 1 -126 -6 -34 -7 -115 -15 -180 -19 -66 -4 -144 -8 -174 -10 -35
-2 -65 2 -84 12 -30 16 -57 9 -98 -25 -10 -9 -27 -12 -42 -8 -14 3 -28 2 -31
-4 -3 -5 -14 -10 -24 -10 -10 0 -26 -12 -36 -26 -15 -23 -22 -26 -54 -20 -79
12 -76 13 -73 -14 14 -113 23 -123 117 -113 56 6 111 -10 99 -28 -3 -5 5 -8
17 -6 12 1 24 -3 26 -9 3 -10 -2 -12 -44 -16 -10 0 -21 -6 -25 -11 -4 -7 -12
-6 -23 3 -14 12 -18 12 -25 -1 -7 -11 -12 -11 -22 -1 -6 6 -23 12 -37 12 -13
0 -22 -3 -18 -6 11 -12 -23 -35 -42 -29 -21 6 -34 -21 -32 -65 3 -52 -17 5
-23 67 -4 35 -9 70 -12 78 -4 8 -1 15 4 15 6 0 14 -20 18 -45 7 -51 16 -52 19
-4 2 22 -4 37 -21 51 -12 12 -26 35 -30 52 -3 17 -9 35 -12 40 -7 12 -31 -34
-32 -61 0 -16 -4 -21 -15 -17 -8 4 -15 1 -15 -7 0 -7 -3 -9 -7 -6 -3 4 -12 -2
-20 -13 -15 -21 -33 -27 -33 -10 0 6 16 43 35 83 39 80 42 97 20 97 -8 0 -15
-7 -15 -15 0 -15 -10 -19 -42 -16 -9 1 -23 -7 -30 -18 -7 -12 -17 -21 -22 -21
-12 0 -66 -57 -66 -70 0 -5 -4 -10 -9 -10 -5 0 -11 -10 -15 -23 -3 -12 -19
-30 -36 -40 -16 -10 -30 -22 -30 -26 0 -5 -15 -14 -32 -22 -37 -14 -61 -35
-71 -61 -7 -19 -27 -25 -27 -8 0 19 92 140 131 171 22 17 37 34 34 37 -9 10
-38 12 -68 6 -27 -6 -77 -50 -77 -67 0 -5 -11 -18 -25 -29 -14 -11 -23 -24
-20 -29 4 -5 -3 -9 -14 -9 -12 0 -21 -5 -21 -11 0 -6 -11 -24 -25 -41 -14 -16
-25 -40 -25 -52 0 -23 -45 -74 -56 -64 -3 4 3 19 13 34 17 27 17 28 0 21 -31
-12 -38 2 -22 40 15 36 20 61 9 51 -3 -4 -4 -8 -2 -10 2 -2 -19 -28 -47 -57
-27 -29 -54 -63 -58 -77 -10 -28 -28 -23 -20 5 4 17 1 19 -26 16 -17 -2 -39
-11 -47 -20 -10 -10 -24 -13 -36 -9 -12 3 -24 1 -28 -6 -11 -18 -93 -22 -86
-4 3 8 -1 14 -9 14 -8 0 -15 -4 -15 -9 0 -5 -9 -13 -20 -16 -11 -3 -20 -12
-20 -20 0 -8 -7 -11 -19 -8 -12 3 -26 -5 -40 -23 -11 -14 -21 -21 -21 -14 0 9
-6 7 -20 -5 -11 -10 -20 -26 -20 -36 0 -12 -6 -16 -20 -12 -44 12 -10 104 94
258 l48 70 -51 -55 c-29 -31 -70 -94 -95 -145 -38 -75 -46 -103 -50 -165 -11
-143 -19 -202 -26 -190 -4 6 -10 -16 -13 -50 -4 -34 -4 -66 -1 -71 3 -5 0 -9
-5 -9 -12 0 -13 3 -11 156 1 103 18 233 36 279 4 11 22 44 41 73 18 29 33 55
33 58 0 3 13 23 28 43 16 20 32 43 36 51 12 24 -57 -56 -79 -91 -23 -37 -40
-43 -40 -14 0 15 -6 19 -22 17 -28 -4 -29 7 -5 34 9 11 18 26 20 34 2 8 12 23
24 33 11 9 17 17 14 17 -22 0 128 148 239 237 57 45 94 68 100 62 15 -15 29
-10 16 5 -9 11 -9 16 0 22 8 4 9 3 5 -4 -9 -15 0 -15 27 -1 l21 12 -19 -29
c-25 -39 -71 -84 -85 -84 -6 0 -28 -18 -48 -41 -24 -26 -42 -39 -54 -36 -10 3
-16 1 -13 -4 8 -12 -30 -47 -60 -55 -14 -3 -22 -10 -19 -15 3 -5 -1 -10 -8
-10 -7 -1 7 -5 32 -9 34 -5 55 -2 88 12 58 26 62 18 7 -12 -25 -14 -45 -28
-45 -32 0 -13 52 14 135 71 161 110 230 129 485 136 127 3 159 9 350 65 84 25
110 37 129 61 27 34 20 33 136 14z m1795 -59 c36 -27 70 -55 76 -60 6 -6 22
-18 35 -26 40 -25 224 -212 255 -260 38 -58 67 -120 60 -127 -3 -4 -6 -1 -6 6
0 7 -4 9 -10 6 -5 -3 -10 3 -10 14 0 13 -5 19 -14 15 -8 -3 -12 -14 -9 -27 4
-17 -3 -13 -31 18 -20 22 -36 43 -36 47 0 4 -30 30 -67 59 l-68 51 55 -5 c44
-4 51 -3 36 6 -11 7 -28 20 -38 30 -10 9 -21 16 -25 16 -5 -1 -15 -1 -23 0
-13 1 -13 2 0 11 13 8 12 10 -2 10 -10 0 -18 8 -19 18 0 10 -3 12 -6 5 -7 -19
-33 -16 -33 3 0 9 -8 23 -17 30 -13 10 -14 13 -4 14 11 0 10 4 -3 19 -10 11
-15 24 -12 29 7 11 -49 53 -66 49 -7 -2 -10 -2 -5 0 14 9 7 22 -27 48 -29 22
-38 25 -58 15 -22 -11 -22 -10 -4 4 20 16 20 16 0 32 -44 36 16 -4 76 -50z
m-1120 -96 c-8 -5 -19 -10 -25 -10 -5 0 -3 5 5 10 8 5 20 10 25 10 6 0 3 -5
-5 -10z m1150 0 c0 -5 -5 -10 -11 -10 -5 0 -7 5 -4 10 3 6 8 10 11 10 2 0 4
-4 4 -10z m-1575 -16 c12 -5 13 -9 5 -14 -15 -9 -50 -1 -50 11 0 11 21 12 45
3z m245 -1 c-8 -3 -19 -12 -23 -20 -5 -9 -13 -10 -24 -5 -9 6 -33 5 -56 0 -22
-5 -42 -6 -45 -3 -10 9 2 13 61 18 32 2 61 7 64 11 4 3 13 6 22 5 14 0 14 -1
1 -6z m-505 -13 c3 -5 1 -10 -4 -10 -6 0 -11 5 -11 10 0 6 2 10 4 10 3 0 8 -4
11 -10z m80 0 c3 -5 1 -10 -4 -10 -6 0 -11 5 -11 10 0 6 2 10 4 10 3 0 8 -4
11 -10z m500 0 c-3 -5 -13 -10 -21 -10 -8 0 -12 5 -9 10 3 6 13 10 21 10 8 0
12 -4 9 -10z m-255 -4 c0 -3 -4 -8 -10 -11 -5 -3 -10 -1 -10 4 0 6 5 11 10 11
6 0 10 -2 10 -4z m1551 -19 c-10 -9 -11 -8 -5 6 3 10 9 15 12 12 3 -3 0 -11
-7 -18z m-1702 -22 c29 -8 60 -20 67 -26 10 -8 47 -9 125 -4 81 5 110 4 105
-4 -4 -6 -13 -11 -20 -11 -7 0 -36 -10 -64 -21 -42 -17 -57 -19 -82 -11 -22 8
-30 8 -30 -1 0 -8 -3 -8 -9 2 -6 9 -11 10 -15 2 -10 -16 -26 -14 -26 4 0 9 -9
15 -25 15 -14 0 -24 5 -22 12 1 6 -14 15 -33 18 -45 8 -60 17 -60 37 0 10 5
13 18 8 9 -3 41 -13 71 -20z m431 -59 c0 -11 -19 -15 -25 -6 -3 5 1 10 9 10 9
0 16 -2 16 -4z m-840 -25 c0 -22 -16 -36 -24 -22 -8 12 3 41 15 41 5 0 9 -9 9
-19z m770 15 c0 -2 -7 -7 -16 -10 -8 -3 -12 -2 -9 4 6 10 25 14 25 6z m369
-89 c16 -20 -30 -43 -55 -28 -18 10 -18 10 3 11 16 0 21 4 17 15 -8 19 19 20
35 2z m151 -17 c0 -5 -4 -10 -10 -10 -5 0 -10 5 -10 10 0 6 5 10 10 10 6 0 10
-4 10 -10z m-60 -9 c0 -11 -26 -22 -34 -14 -12 12 -5 23 14 23 11 0 20 -4 20
-9z m54 -37 c4 -10 1 -14 -6 -12 -15 5 -23 28 -10 28 5 0 13 -7 16 -16z m-61
-44 c24 -28 21 -33 -8 -14 -14 9 -25 20 -25 25 0 15 15 10 33 -11z m-1860 -58
c-21 -22 -26 -21 -17 2 3 9 12 16 20 16 11 0 10 -4 -3 -18z m860 -2 c3 -11 3
-20 1 -20 -2 0 -8 9 -14 20 -6 11 -7 20 -2 20 6 0 12 -9 15 -20z m-833 -18 c0
-5 -7 -17 -15 -28 -14 -18 -14 -17 -4 9 12 27 19 34 19 19z m-150 -12 c0 -5
-5 -10 -11 -10 -5 0 -7 5 -4 10 3 6 8 10 11 10 2 0 4 -4 4 -10z m-492 -69 c-2
-13 -12 -29 -23 -35 -11 -6 -23 -15 -27 -21 -12 -15 -10 12 4 57 7 23 16 37
24 34 7 -3 10 3 8 17 -4 19 -3 18 6 -3 6 -13 10 -35 8 -49z m2879 34 c9 -24
-1 -27 -15 -5 -8 13 -8 20 -2 20 6 0 13 -7 17 -15z m878 -42 c17 -40 20 -83 6
-83 -5 0 -15 -2 -23 -5 -9 -4 -19 11 -31 44 -23 66 -22 79 8 79 20 0 29 -9 40
-35z m-3678 -75 c-3 -7 -5 -2 -5 12 0 14 2 19 5 13 2 -7 2 -19 0 -25z m-10
-145 c-3 -10 -5 -4 -5 12 0 17 2 24 5 18 2 -7 2 -21 0 -30z m-30 -100 c-3 -10
-5 -4 -5 12 0 17 2 24 5 18 2 -7 2 -21 0 -30z m3670 -80 c-3 -10 -5 -2 -5 17
0 19 2 27 5 18 2 -10 2 -26 0 -35z m-30 5 c-3 -8 -6 -5 -6 6 -1 11 2 17 5 13
3 -3 4 -12 1 -19z"/>
<path d="M4650 2420 c0 -5 5 -10 10 -10 6 0 10 5 10 10 0 6 -4 10 -10 10 -5 0
-10 -4 -10 -10z"/>
<path d="M3135 2090 c-13 -6 -15 -9 -5 -9 8 0 22 4 30 9 18 12 2 12 -25 0z"/>
<path d="M3191 2091 c-19 -12 3 -24 29 -16 11 4 20 2 20 -3 0 -11 48 -22 67
-15 25 10 12 21 -29 25 -24 3 -50 8 -58 11 -8 4 -21 3 -29 -2z"/>
<path d="M3503 2083 c9 -2 23 -2 30 0 6 3 -1 5 -18 5 -16 0 -22 -2 -12 -5z"/>
<path d="M3348 2062 c-10 -2 -18 -8 -18 -13 0 -13 27 -11 35 2 9 13 4 16 -17
11z"/>
<path d="M3142 2034 c-38 -26 -27 -37 31 -29 28 4 56 11 62 16 5 5 18 10 30
10 14 1 11 4 -10 9 -50 13 -89 11 -113 -6z"/>
<path d="M2579 1888 c-32 -35 -59 -66 -59 -69 0 -20 -80 -134 -92 -131 -10 3
-10 1 -1 -8 16 -17 31 -5 49 40 9 21 22 41 30 44 8 3 14 10 14 16 0 6 29 44
65 85 36 41 65 77 65 80 0 13 -16 0 -71 -57z"/>
<path d="M4366 1888 c3 -13 13 -30 21 -39 18 -22 70 -29 84 -13 8 9 5 11 -10
7 -16 -4 -21 -1 -21 13 0 11 -14 27 -31 37 -41 23 -52 22 -43 -5z"/>
<path d="M4787 1858 c4 -7 8 -15 8 -18 0 -12 71 -140 76 -140 8 0 -5 61 -21
101 -7 16 -17 29 -22 29 -5 0 -7 3 -5 8 6 8 -13 26 -32 30 -8 2 -10 -2 -4 -10z"/>
<path d="M4000 1845 c0 -9 6 -12 15 -9 8 4 12 10 9 15 -8 14 -24 10 -24 -6z"/>
<path d="M4265 1810 c3 -5 13 -10 21 -10 8 0 14 5 14 10 0 6 -9 10 -21 10 -11
0 -17 -4 -14 -10z"/>
<path d="M4489 1798 c4 -13 18 -27 29 -33 12 -5 22 -16 22 -23 0 -8 9 -16 19
-19 11 -3 22 -11 25 -19 3 -8 10 -14 16 -14 5 0 22 -13 37 -28 34 -35 63 -47
63 -27 0 8 -5 15 -10 15 -6 0 -10 6 -9 13 3 20 -12 47 -27 47 -8 0 -14 6 -14
14 0 8 -13 20 -30 28 -16 7 -30 19 -30 26 0 7 -5 10 -11 7 -6 -4 -13 2 -16 14
-6 25 -33 28 -33 4 -1 -17 -1 -17 -14 0 -18 24 -27 21 -17 -5z"/>
<path d="M1963 1786 c-15 -13 -25 -27 -22 -30 3 -3 18 8 34 24 35 36 27 40
-12 6z"/>
<path d="M2400 1774 c-13 -34 -13 -39 4 -25 17 14 28 51 15 51 -5 0 -14 -12
-19 -26z"/>
<path d="M4927 1744 c-4 -4 -7 -20 -7 -35 0 -15 -4 -30 -8 -33 -19 -11 -12
-76 10 -96 32 -29 56 -22 26 8 -9 9 -9 12 1 12 7 0 10 4 7 8 -3 5 1 20 9 35 7
14 10 28 7 32 -3 3 -7 16 -9 28 -4 26 -26 51 -36 41z"/>
<path d="M2110 1575 c0 -9 5 -15 11 -13 6 2 11 8 11 13 0 5 -5 11 -11 13 -6 2
-11 -4 -11 -13z"/>
<path d="M5480 1474 c0 -8 5 -12 10 -9 6 4 8 11 5 16 -9 14 -15 11 -15 -7z"/>
<path d="M6735 4611 c-6 -11 9 -23 19 -14 9 9 7 23 -3 23 -6 0 -12 -4 -16 -9z"/>
<path d="M7114 4597 c3 -10 6 -23 6 -28 0 -5 4 -9 9 -9 13 0 7 28 -9 43 -10
10 -12 9 -6 -6z"/>
<path d="M6360 4580 c-9 -16 -8 -20 5 -20 8 0 15 9 15 20 0 11 -2 20 -5 20 -2
0 -9 -9 -15 -20z"/>
<path d="M6400 4590 c0 -5 5 -10 10 -10 6 0 10 5 10 10 0 6 -4 10 -10 10 -5 0
-10 -4 -10 -10z"/>
<path d="M6665 4590 c4 -6 11 -8 16 -5 14 9 11 15 -7 15 -8 0 -12 -5 -9 -10z"/>
<path d="M7160 4590 c-12 -8 -9 -10 13 -10 15 0 27 5 27 10 0 13 -20 13 -40 0z"/>
<path d="M6236 4573 c-6 -14 -5 -15 5 -6 7 7 10 15 7 18 -3 3 -9 -2 -12 -12z"/>
<path d="M6769 4573 c-13 -15 -12 -15 9 -4 23 12 28 21 13 21 -5 0 -15 -7 -22
-17z"/>
<path d="M6284 4571 c4 -5 0 -11 -6 -14 -7 -2 -10 -8 -6 -12 4 -4 11 -4 17 0
14 8 14 35 0 35 -5 0 -8 -4 -5 -9z"/>
<path d="M6718 4563 c7 -3 16 -2 19 1 4 3 -2 6 -13 5 -11 0 -14 -3 -6 -6z"/>
<path d="M6960 4550 c0 -5 7 -7 15 -4 8 4 15 8 15 10 0 2 -7 4 -15 4 -8 0 -15
-4 -15 -10z"/>
<path d="M6890 4531 c0 -6 5 -13 10 -16 8 -5 7 -11 -1 -21 -7 -9 -8 -14 -1
-14 13 0 26 36 17 50 -8 13 -25 13 -25 1z"/>
<path d="M5805 4470 c-13 -6 -15 -9 -5 -9 8 0 22 4 30 9 18 12 2 12 -25 0z"/>
<path d="M408 4313 c7 -3 16 -2 19 1 4 3 -2 6 -13 5 -11 0 -14 -3 -6 -6z"/>
<path d="M725 4310 c4 -6 11 -8 16 -5 14 9 11 15 -7 15 -8 0 -12 -5 -9 -10z"/>
<path d="M455 4290 c3 -5 10 -10 16 -10 5 0 9 5 9 10 0 6 -7 10 -16 10 -8 0
-12 -4 -9 -10z"/>
</g>
</svg>
